<?xml version="1.0" standalone="no"?><svg xmlns="http://www.w3.org/2000/svg" viewBox="0 0 1440 320"><path fill="#129383" fill-opacity="1" d="M0,192L24,202.7C48,213,96,235,144,208C192,181,240,107,288,80C336,53,384,75,432,80C480,85,528,75,576,101.3C624,128,672,192,720,186.7C768,181,816,107,864,80C912,53,960,75,1008,101.3C1056,128,1104,160,1152,160C1200,160,1248,128,1296,112C1344,96,1392,96,1416,96L1440,96L1440,320L1416,320C1392,320,1344,320,1296,320C1248,320,1200,320,1152,320C1104,320,1056,320,1008,320C960,320,912,320,864,320C816,320,768,320,720,320C672,320,624,320,576,320C528,320,480,320,432,320C384,320,336,320,288,320C240,320,192,320,144,320C96,320,48,320,24,320L0,320Z"></path></svg>